HIERARCHY
ROOT Hips
{
	OFFSET 0.000000 0.000000 0.000000
	CHANNELS 6 Xposition Yposition Zposition Zrotation Yrotation Xrotation 
	JOINT LHipJoint
	{
		OFFSET 0.000000 0.000000 0.000000
		CHANNELS 3 Zrotation Yrotation Xrotation
		JOINT LeftUpLeg
		{
			OFFSET 1.363060 -1.794630 0.839290
			CHANNELS 3 Zrotation Yrotation Xrotation
			JOINT LeftLeg
			{
				OFFSET 2.448110 -6.726130 0.000000
				CHANNELS 3 Zrotation Yrotation Xrotation
				JOINT LeftFoot
				{
					OFFSET 2.562200 -7.039590 0.000000
					CHANNELS 3 Zrotation Yrotation Xrotation
					JOINT LeftToeBase
					{
						OFFSET 0.157640 -0.433110 2.322550
						CHANNELS 3 Zrotation Yrotation Xrotation
						End Site
						{
							OFFSET 0.000000 0.000000 0.000000
						}
					}
				}
			}
		}
	}
	JOINT RHipJoint
	{
		OFFSET 0.000000 0.000000 0.000000
		CHANNELS 3 Zrotation Yrotation Xrotation
		JOINT RightUpLeg
		{
			OFFSET -1.305520 -1.794630 0.839290
			CHANNELS 3 Zrotation Yrotation Xrotation
			JOINT RightLeg
			{
				OFFSET -2.542530 -6.985550 0.000000
				CHANNELS 3 Zrotation Yrotation Xrotation
				JOINT RightFoot
				{
					OFFSET -2.568260 -7.056230 0.000000
					CHANNELS 3 Zrotation Yrotation Xrotation
					JOINT RightToeBase
					{
						OFFSET -0.164730 -0.452590 2.363150
						CHANNELS 3 Zrotation Yrotation Xrotation
						End Site
						{
							OFFSET 0.000000 0.000000 0.000000
						}
					}
				}
			}
		}
	}
	JOINT LowerBack
	{
		OFFSET 0.000000 0.000000 0.000000
		CHANNELS 3 Zrotation Yrotation Xrotation
		JOINT Spine
		{
			OFFSET 0.028270 2.035590 -0.193380
			CHANNELS 3 Zrotation Yrotation Xrotation
			JOINT Spine1
			{
				OFFSET 0.056720 2.048850 -0.042750
				CHANNELS 3 Zrotation Yrotation Xrotation
				JOINT Neck
				{
					OFFSET 0.000000 0.000000 0.000000
					CHANNELS 3 Zrotation Yrotation Xrotation
					JOINT Neck1
					{
						OFFSET -0.054170 1.746240 0.172020
						CHANNELS 3 Zrotation Yrotation Xrotation
						JOINT Head
						{
							OFFSET 0.104070 1.761360 -0.123970
							CHANNELS 3 Zrotation Yrotation Xrotation
							End Site
							{
								OFFSET 0.000000 0.000000 0.000000
							}
						}
					}
				}
				JOINT LeftShoulder
				{
					OFFSET 0.000000 0.000000 0.000000
					CHANNELS 3 Zrotation Yrotation Xrotation
					JOINT LeftArm
					{
						OFFSET 3.362410 1.200890 -0.311210
						CHANNELS 3 Zrotation Yrotation Xrotation
						JOINT LeftForeArm
						{
							OFFSET 4.983000 -0.000000 -0.000000
							CHANNELS 3 Zrotation Yrotation Xrotation
							JOINT LeftHand
							{
								OFFSET 3.483560 -0.000000 -0.000000
								CHANNELS 3 Zrotation Yrotation Xrotation
								JOINT LeftFingerBase
								{
									OFFSET 0.000000 0.000000 0.000000
									CHANNELS 3 Zrotation Yrotation Xrotation
									JOINT LeftHandIndex1
									{
										OFFSET 0.715260 -0.000000 -0.000000
										CHANNELS 3 Zrotation Yrotation Xrotation
										End Site
										{
											OFFSET 0.000000 0.000000 0.000000
										}
									}
								}
								JOINT LThumb
								{
									OFFSET 0.000000 0.000000 0.000000
									CHANNELS 3 Zrotation Yrotation Xrotation
									End Site
									{
										OFFSET 0.000000 0.000000 0.000000
									}
								}
							}
						}
					}
				}
				JOINT RightShoulder
				{
					OFFSET 0.000000 0.000000 0.000000
					CHANNELS 3 Zrotation Yrotation Xrotation
					JOINT RightArm
					{
						OFFSET -3.136600 1.374050 -0.404650
						CHANNELS 3 Zrotation Yrotation Xrotation
						JOINT RightForeArm
						{
							OFFSET -5.241900 -0.000000 -0.000000
							CHANNELS 3 Zrotation Yrotation Xrotation
							JOINT RightHand
							{
								OFFSET -3.444170 -0.000000 -0.000000
								CHANNELS 3 Zrotation Yrotation Xrotation
								JOINT RightFingerBase
								{
									OFFSET 0.000000 0.000000 0.000000
									CHANNELS 3 Zrotation Yrotation Xrotation
									JOINT RightHandIndex1
									{
										OFFSET -0.622530 -0.000000 -0.000000
										CHANNELS 3 Zrotation Yrotation Xrotation
										End Site
										{
											OFFSET 0.000000 0.000000 0.000000
										}
									}
								}
								JOINT RThumb
								{
									OFFSET 0.000000 0.000000 0.000000
									CHANNELS 3 Zrotation Yrotation Xrotation
									End Site
									{
										OFFSET 0.000000 0.000000 0.000000
									}
								}
							}
						}
					}
				}
			}
		}
	}
}
MOTION
Frames: 4
Frame Time: 0.008333
34.201652 15.766366 2.435120 -131.114228 -82.425577 142.120185 -0.072455 -13.398071 -16.478822 -19.377456 2.835280 -2.929266 -11.409088 11.035693 46.214590 1.483609 -8.168113 -4.028326 3.286126 -25.113763 10.041003 1.721901 11.885554 -15.518400 3.282600 -9.721744 -27.007167 -5.219092 -25.889612 64.136769 -10.451994 -7.825472 0.278038 -0.838781 -8.711892 -14.501918 2.239421 0.939804 34.401465 2.153512 -3.757503 -9.081191 2.523386 -4.485645 -0.124164 -1.374304 -0.750503 -13.547193 6.387719 -1.053118 6.688921 2.732579 -1.563796 11.484736 20.221613 -5.955458 -1.172509 -90.245518 -40.839802 21.945494 171.601720 -75.540665 -169.332064 -18.239944 21.407315 -6.397064 0.000001 -0.000001 0.000002 -0.000000 -0.000000 -0.000000 0.000000 0.000000 0.000000 -14.211692 -1.936156 1.340702 75.220776 13.509508 -2.468612 -22.676521 77.542984 -10.835497 8.327513 1.820395 0.520752 0.000000 0.000000 0.000000 -0.000000 -0.000000 -0.000000 0.000000 0.000000 0.000000 
34.072673 15.800150 2.394294 -126.807793 -82.875891 137.939343 -0.320169 -13.482835 -16.484215 -18.998081 2.723419 -1.940985 -11.813814 10.287706 45.571490 0.444352 -8.167604 -3.619646 1.824642 -25.011164 12.607946 1.468103 11.813788 -15.474893 3.130214 -8.310305 -27.364910 -1.892489 -26.940077 61.667458 -9.545499 -9.378439 0.308552 -4.698120 -3.919707 -19.422349 2.505139 1.035179 34.401035 2.147895 -3.761935 -9.094779 2.594296 -4.559248 -0.318653 -1.353037 -0.689415 -13.331372 6.399309 -1.023882 6.674950 3.133129 -1.529534 11.199042 20.198293 -6.354731 -1.174653 -90.711515 -42.235335 22.929076 171.773402 -75.166429 -169.601727 -18.268764 21.958201 -6.579102 0.000001 -0.000001 0.000002 0.000000 0.000000 0.000000 -0.000000 -0.000000 0.000000 -14.078163 -2.147528 1.403730 75.382536 13.104576 -2.379321 -24.494606 78.053638 -10.983999 8.783812 4.266205 1.072753 0.000000 0.000000 0.000000 0.000000 0.000000 -0.000000 0.000000 0.000000 0.000000 
33.939189 15.835586 2.352042 -125.240651 -83.188112 136.627509 -0.453988 -13.531129 -16.315092 -18.822122 3.409853 -1.650577 -11.844485 9.313460 45.136747 -0.781387 -8.568891 -3.009580 0.778568 -24.349273 14.209902 1.193274 11.894955 -15.614516 3.579821 -8.158969 -28.302464 -0.840373 -27.070621 59.772721 -9.855052 -8.580511 1.234533 -5.102997 -3.601341 -20.142394 2.376599 1.177620 34.233324 2.174785 -3.738812 -9.112295 2.689992 -4.559379 -0.321358 -1.304546 -0.730219 -13.274005 6.428193 -1.061443 6.666835 2.666879 -1.378228 11.384838 20.090654 -6.482575 -1.245632 -91.200261 -43.601735 24.097408 171.461754 -74.818325 -168.768062 -18.078575 21.609295 -6.430636 0.000001 -0.000001 0.000002 -0.000000 0.000000 0.000000 -0.000000 -0.000000 0.000000 -13.887822 -2.231910 1.401023 75.499672 12.860274 -2.184941 -26.710504 78.517187 -12.655440 8.438936 4.420797 1.087376 -0.000000 0.000000 0.000000 0.000000 0.000000 0.000000 -0.000000 0.000000 0.000000 
33.800901 15.883033 2.320721 -121.740042 -83.527621 133.315107 -0.520767 -13.694133 -16.375442 -18.643775 3.282782 -0.549140 -12.142576 8.753116 43.937565 -3.239482 -8.568115 -2.199346 -0.306713 -22.523149 15.421761 0.993861 11.862015 -15.569874 4.095759 -8.270349 -29.269012 1.668267 -26.624821 57.561506 -10.420285 -9.155578 1.467464 -7.071294 -1.316487 -22.321209 2.617227 1.275319 34.262163 2.148837 -3.662083 -9.152232 2.480327 -4.538274 -0.199666 -1.040485 -0.764103 -13.456854 6.416480 -1.151536 6.620064 2.798226 -1.682639 11.524537 20.367554 -6.846452 -1.498339 -91.719922 -44.873138 24.909961 172.295349 -74.514716 -169.957705 -18.112165 22.481682 -6.715644 0.000001 -0.000001 0.000002 -0.000000 0.000000 -0.000000 0.000000 0.000000 0.000000 -13.472709 -2.818522 1.496108 75.614721 12.956971 -2.397169 -27.365012 79.137463 -14.113178 9.407413 3.414406 0.914886 -0.000000 -0.000000 -0.000000 0.000000 0.000000 0.000000 -0.000000 -0.000000 -0.000000 
